<?xml version="1.0" encoding="utf-8"?>
<!-- Generator: Adobe Illustrator 18.0.0, SVG Export Plug-In . SVG Version: 6.00 Build 0)  -->
<!DOCTYPE svg PUBLIC "-//W3C//DTD SVG 1.1//EN" "http://www.w3.org/Graphics/SVG/1.1/DTD/svg11.dtd" [
	<!ENTITY ns_extend "http://ns.adobe.com/Extensibility/1.0/">
	<!ENTITY ns_ai "http://ns.adobe.com/AdobeIllustrator/10.0/">
	<!ENTITY ns_graphs "http://ns.adobe.com/Graphs/1.0/">
	<!ENTITY ns_vars "http://ns.adobe.com/Variables/1.0/">
	<!ENTITY ns_imrep "http://ns.adobe.com/ImageReplacement/1.0/">
	<!ENTITY ns_sfw "http://ns.adobe.com/SaveForWeb/1.0/">
	<!ENTITY ns_custom "http://ns.adobe.com/GenericCustomNamespace/1.0/">
	<!ENTITY ns_adobe_xpath "http://ns.adobe.com/XPath/1.0/">
]>
<svg version="1.1" id="Layer_1" xmlns:x="&ns_extend;" xmlns:i="&ns_ai;" xmlns:graph="&ns_graphs;"
	 xmlns="http://www.w3.org/2000/svg" xmlns:xlink="http://www.w3.org/1999/xlink" x="0px" y="0px" viewBox="0 0 41.4 48.8"
	 enable-background="new 0 0 41.4 48.8" xml:space="preserve">
<metadata>
	<sfw  xmlns="&ns_sfw;">
		<slices></slices>
		<sliceSourceBounds  height="31" width="31" bottomLeftOrigin="true" x="177.5" y="-216.6"></sliceSourceBounds>
	</sfw>
</metadata>
<g>
	<g>
		<path fill="#FFFFFF" d="M20.8,41c8.8-0.1,15.4-7.4,15.4-15.5c0-8.2-6.9-15.6-15.8-15.5C12,10.2,5,17.3,5.2,25.6
			C5,33.7,11.8,41.1,20.8,41z"/>
		<path fill="#536C7D" d="M20.4,10.1c8.9-0.1,15.8,7.2,15.8,15.5c0,8.1-6.6,15.4-15.4,15.5C11.8,41.1,5,33.7,5.2,25.6
			C5,17.3,12,10.2,20.4,10.1z M23.9,27.3c-1-0.6-2-1.1-3.1-1.8c2.1-1.2,4-2.4,6.2-3.7c-2.9-1.6-5.5-3.1-8.4-4.8c0,2.5,0,4.8,0,7.3
			c-2.3-2.1-4.5-3.9-6.7-5.9c-0.4,1.4-0.4,2.4,0.8,3.2c1.6,1.1,3,2.5,4.5,3.8c-1.5,1.3-2.8,2.5-4.2,3.6c-1.3,0.9-1.4,2.1-1.1,3.7
			c2.2-2.1,4.4-4,6.8-6.2c0,2.5,0,4.8,0,7.4c3-1.7,5.6-3.3,8.5-4.9C25.8,28.5,24.8,27.9,23.9,27.3z M28,21.8
			c-0.2,0.2-0.4,0.4-0.7,0.7c1.5,1.9,1.7,3.8,0.4,5.8c-0.1,0.2,0.1,0.7,0.3,1.2C30.4,27.4,30.3,23.6,28,21.8z M26.6,24.1
			c0.5,1,0.5,1.9,0.1,3c-0.1,0.3,0,0.6,0.1,0.9c0.3-0.1,0.6-0.2,0.7-0.4c0.9-1.3,0.6-3.2-0.9-4.4C26.5,23.4,26.4,23.8,26.6,24.1z
			 M26.6,25c-0.2-0.3-0.5-0.6-0.7-0.9c0,0.4-0.1,0.7-0.1,1.1c0,0.3-0.1,0.7,0,1c0,0.3,0.1,0.6,0.1,0.8c0.2-0.2,0.5-0.4,0.7-0.6
			c0.1-0.2,0.1-0.5,0.1-0.6C26.6,25.5,26.7,25.2,26.6,25z M24.7,26.3c0.3,0,0.5-0.5,0.7-0.8c-0.3-0.3-0.6-0.7-0.9-0.7
			c-0.2,0-0.6,0.4-1,0.8C24.1,26,24.4,26.4,24.7,26.3z"/>
		<path fill="#FFFFFF" d="M18.6,34.1c0-2.6,0-4.9,0-7.4c-2.4,2.2-4.5,4.1-6.8,6.2c-0.3-1.6-0.2-2.7,1.1-3.7c1.5-1.1,2.8-2.4,4.2-3.6
			c-1.5-1.3-2.9-2.6-4.5-3.8c-1.2-0.9-1.2-1.9-0.8-3.2c2.2,2,4.4,3.8,6.7,5.9c0-2.5,0-4.8,0-7.3c2.9,1.6,5.5,3.1,8.4,4.8
			c-2.2,1.3-4.2,2.5-6.2,3.7c1.1,0.6,2.1,1.2,3.1,1.8c1,0.6,2,1.1,3.2,1.8C24.2,30.8,21.5,32.4,18.6,34.1z M20.3,27
			c0,1.4,0,2.8,0,4.2c1.2-0.7,2.4-1.3,3.7-2.1C22.7,28.4,21.5,27.7,20.3,27z M20.2,24.1c1.3-0.7,2.4-1.4,3.8-2.1
			c-1.3-0.8-2.5-1.4-3.8-2.1C20.2,21.3,20.2,22.6,20.2,24.1z"/>
		<path fill="#FFFFFF" d="M28,29.5c2.4-2.1,2.3-5.9,0-7.7c-0.2,0.2-0.4,0.4-0.7,0.7c1.5,1.9,1.7,3.8,0.4,5.8
			C27.6,28.5,27.9,29,28,29.5z"/>
		<path fill="#FFFFFF" d="M26.5,23.1c0,0.3-0.1,0.7,0,1c0.5,1,0.5,1.9,0.1,3c-0.1,0.3,0,0.6,0.1,0.9c0.3-0.1,0.6-0.2,0.7-0.4
			C28.3,26.2,28.1,24.3,26.5,23.1z"/>
		<path fill="#FFFFFF" d="M26.6,25.8c0-0.3,0-0.6-0.1-0.7c-0.2-0.3-0.5-0.6-0.7-0.9c0,0.4-0.1,0.7-0.1,1.1c0,0.3-0.1,0.7,0,1
			c0,0.3,0.1,0.6,0.1,0.8c0.2-0.2,0.5-0.4,0.7-0.6C26.6,26.2,26.6,25.9,26.6,25.8z"/>
		<path fill="#FFFFFF" d="M23.5,25.7c0.5,0.3,0.9,0.7,1.2,0.7c0.3,0,0.5-0.5,0.7-0.8c-0.3-0.3-0.6-0.7-0.9-0.7
			C24.3,24.8,24,25.3,23.5,25.7z"/>
		<path fill="#536C7D" d="M24,29.1c-1.3-0.7-2.4-1.4-3.7-2.1c0,1.4,0,2.8,0,4.2C21.5,30.5,22.6,29.9,24,29.1z"/>
		<path fill="#536C7D" d="M20.2,19.8c0,1.5,0,2.8,0,4.3c1.3-0.7,2.4-1.4,3.8-2.1C22.6,21.2,21.5,20.5,20.2,19.8z"/>
	</g>
</g>
</svg>
