<?xml version="1.0" encoding="utf-8"?>
<!-- Generator: Adobe Illustrator 18.0.0, SVG Export Plug-In . SVG Version: 6.00 Build 0)  -->
<!DOCTYPE svg PUBLIC "-//W3C//DTD SVG 1.1//EN" "http://www.w3.org/Graphics/SVG/1.1/DTD/svg11.dtd" [
	<!ENTITY ns_extend "http://ns.adobe.com/Extensibility/1.0/">
	<!ENTITY ns_ai "http://ns.adobe.com/AdobeIllustrator/10.0/">
	<!ENTITY ns_graphs "http://ns.adobe.com/Graphs/1.0/">
	<!ENTITY ns_vars "http://ns.adobe.com/Variables/1.0/">
	<!ENTITY ns_imrep "http://ns.adobe.com/ImageReplacement/1.0/">
	<!ENTITY ns_sfw "http://ns.adobe.com/SaveForWeb/1.0/">
	<!ENTITY ns_custom "http://ns.adobe.com/GenericCustomNamespace/1.0/">
	<!ENTITY ns_adobe_xpath "http://ns.adobe.com/XPath/1.0/">
]>
<svg version="1.1" id="Layer_1" xmlns:x="&ns_extend;" xmlns:i="&ns_ai;" xmlns:graph="&ns_graphs;"
	 xmlns="http://www.w3.org/2000/svg" xmlns:xlink="http://www.w3.org/1999/xlink" x="0px" y="0px" viewBox="0 0 109.8 118.1"
	 enable-background="new 0 0 109.8 118.1" xml:space="preserve">
<metadata>
	<sfw  xmlns="&ns_sfw;">
		<slices></slices>
		<sliceSourceBounds  height="101.3" width="68.8" bottomLeftOrigin="true" x="162.2" y="-255.1"></sliceSourceBounds>
	</sfw>
</metadata>
<g id="Blink_large">
	<g>
		<path fill="#FFFFFF" d="M53.9,80.1c-19,0-34.4-15.4-34.4-34.4s15.4-34.4,34.4-34.4s34.4,15.4,34.4,34.4
			C88.3,64.7,72.9,80.1,53.9,80.1z M53.9,13.1c-18,0-32.6,14.6-32.6,32.6s14.6,32.6,32.6,32.6s32.6-14.6,32.6-32.6
			C86.5,27.7,71.8,13.1,53.9,13.1z"/>
	</g>
	<text transform="matrix(1 0 0 1 25.0669 107.1851)" fill="#FFFFFF" font-family="'PublicaPlay-Regular'" font-size="23.9724">Blink</text>
	<g>
		<g>
			<path fill="#FFFFFF" d="M31,45.3c4.6-5.8,10.4-9.7,17.7-11.2c8.7-1.8,16.4,0.7,23.2,6.3c1.8,1.4,3.2,3.2,4.8,4.9c0,0.3,0,0.7,0,1
				c-1.4,1.5-2.9,3-4.4,4.5c-0.5,0.4-0.6,0.8-0.3,1.4c0.6,1.1,1.2,2.2,1.7,3.3c0.5,1,0.2,2-0.6,2.4s-1.8,0-2.3-0.9
				c-0.6-1.2-1.2-2.3-1.8-3.5c-1.7,0.9-3.3,1.8-5.1,2.7c0.4,0.9,0.9,1.8,1.3,2.6c0.2,0.4,0.4,0.7,0.5,1.1c0.4,0.9,0.1,1.8-0.7,2.2
				s-1.7,0.1-2.1-0.8c-0.6-1.2-1.2-2.4-1.8-3.5c-0.1-0.2-0.5-0.5-0.8-0.5c-1.6,0.3-3.2,0.6-5.1,0.9c0,1.1,0.1,2.4,0,3.7
				c-0.1,0.5-0.5,1.1-1,1.3c-0.4,0.2-1.2,0-1.6-0.2c-0.3-0.2-0.5-0.9-0.5-1.3c-0.1-1.2,0-2.4,0-3.5c-1.8-0.4-3.5-0.7-5.2-1
				c-0.2,0-0.6,0.3-0.7,0.5c-0.6,1.1-1.1,2.2-1.7,3.3c-0.5,1-1.4,1.4-2.2,0.9c-0.8-0.4-1.1-1.3-0.6-2.4c0.6-1.2,1.1-2.3,1.7-3.5
				c-1.7-0.9-3.4-1.8-5.1-2.7c-0.6,1.2-1.1,2.3-1.7,3.4c-0.5,1-1.5,1.4-2.3,1s-1.1-1.4-0.5-2.4c0.5-1.1,1.1-2.2,1.7-3.3
				c0.3-0.5,0.1-0.8-0.3-1.2c-1.5-1.5-3-3-4.4-4.6C31,46,31,45.7,31,45.3z M34.8,45.8C46.7,58.7,63.3,56.9,73,45.7
				C61.9,33.7,45.6,33.9,34.8,45.8z"/>
		</g>
	</g>
</g>
</svg>
