<?xml version="1.0" encoding="utf-8"?>
<!-- Generator: Adobe Illustrator 18.0.0, SVG Export Plug-In . SVG Version: 6.00 Build 0)  -->
<!DOCTYPE svg PUBLIC "-//W3C//DTD SVG 1.1//EN" "http://www.w3.org/Graphics/SVG/1.1/DTD/svg11.dtd" [
	<!ENTITY ns_extend "http://ns.adobe.com/Extensibility/1.0/">
	<!ENTITY ns_ai "http://ns.adobe.com/AdobeIllustrator/10.0/">
	<!ENTITY ns_graphs "http://ns.adobe.com/Graphs/1.0/">
	<!ENTITY ns_vars "http://ns.adobe.com/Variables/1.0/">
	<!ENTITY ns_imrep "http://ns.adobe.com/ImageReplacement/1.0/">
	<!ENTITY ns_sfw "http://ns.adobe.com/SaveForWeb/1.0/">
	<!ENTITY ns_custom "http://ns.adobe.com/GenericCustomNamespace/1.0/">
	<!ENTITY ns_adobe_xpath "http://ns.adobe.com/XPath/1.0/">
]>
<svg version="1.1" id="Layer_1" xmlns:x="&ns_extend;" xmlns:i="&ns_ai;" xmlns:graph="&ns_graphs;"
	 xmlns="http://www.w3.org/2000/svg" xmlns:xlink="http://www.w3.org/1999/xlink" x="0px" y="0px" viewBox="0 0 41.4 48.8"
	 enable-background="new 0 0 41.4 48.8" xml:space="preserve">
<metadata>
	<sfw  xmlns="&ns_sfw;">
		<slices></slices>
		<sliceSourceBounds  height="32.7" width="32.7" bottomLeftOrigin="true" x="176.7" y="-215.7"></sliceSourceBounds>
	</sfw>
</metadata>
<g id="small_ambient_color_icon">
	<g>
		<g>
			<path fill="#FFFFFF" d="M14.1,29.1c-0.3-0.5-0.6-0.9-0.9-1.4c-0.4-0.7-0.6-1.5-0.8-2.3c-0.1-0.3-0.1-0.6-0.2-0.9
				c-0.2-0.1-0.3-0.1-0.5-0.1c-1.5,0-3,0-4.5,0c-0.9,0-1.7,0-2.6,0c-0.1,0-0.2,0-0.3,0c0,0.3,0,0.7,0.1,1c0,0.5,0.1,1,0.2,1.4
				c0.2,1,0.4,1.9,0.8,2.8c0.5,1.3,1.1,2.5,1.9,3.6c0.3,0.4,0.6,0.9,1,1.3c0.2,0.2,0.3,0.2,0.4,0c0.5-0.5,0.9-0.9,1.4-1.4
				c1.3-1.3,2.6-2.5,3.9-3.8C14.1,29.2,14.1,29.1,14.1,29.1"/>
			<path fill="#FFFFFF" d="M27,29.3c0,0.1,0.1,0.2,0.2,0.3c1.7,1.7,3.4,3.4,5,5.1c0.1,0.1,0.1,0.2,0.2,0.3c1.2-1.3,2.2-2.7,2.9-4.2
				c0.9-1.9,1.4-3.9,1.5-6c-0.2-0.1-0.3,0-0.4,0c-0.9,0-1.8,0-2.7,0c-1.5,0-3-0.1-4.5-0.1c-0.4,0-0.4,0-0.4,0.4
				c-0.1,0.7-0.3,1.3-0.6,2c-0.3,0.8-0.8,1.5-1.3,2.1C27,29.2,27,29.3,27,29.3"/>
			<path fill="#FFFFFF" d="M25.9,30.4c-0.3,0.1-0.6,0.4-0.9,0.6c-0.9,0.6-2,0.9-3.1,1.1c-0.1,0-0.3,0.1-0.4,0.1
				c-0.2,0-0.3,0.1-0.3,0.3c0,1.1,0.1,2.3,0,3.4c-0.1,1.3,0,2.6,0,3.9c0,0.1,0,0.2,0,0.3c0.5,0.1,1,0,1.5-0.1c3.3-0.4,6.3-1.8,8.8-4
				c0-0.2-0.2-0.3-0.3-0.4c-1.6-1.6-3.2-3.2-4.8-4.9C26.2,30.7,26.1,30.5,25.9,30.4"/>
			<path fill="#FFFFFF" d="M27.1,18.6c0,0.2,0.1,0.2,0.2,0.4c0.8,1.1,1.3,2.3,1.5,3.6c0,0.1,0,0.1,0.1,0.2c0.1,0.5,0.1,0.5,0.6,0.5
				c1.4,0,2.7,0,4.1,0c1,0,2,0,3.1,0c0.3,0,0.3,0,0.3-0.3c0-0.6-0.1-1.3-0.2-1.9c-0.3-2-1-3.8-2-5.5c-0.5-0.8-1-1.6-1.7-2.3
				C33,13.2,33,13.2,32.9,13C30.9,14.9,29,16.7,27.1,18.6"/>
			<path fill="#FFFFFF" d="M31.7,12c-0.3-0.4-0.8-0.7-1.2-1c-1-0.8-2-1.4-3.2-1.9C26.2,8.6,25,8.1,23.8,8c-0.6-0.1-1.2-0.2-1.8-0.3
				c-0.2,0-0.3,0-0.5,0c0,0.1,0,0.2,0,0.2c-0.1,2.2-0.1,4.3-0.1,6.5c0,0.3-0.1,0.6-0.1,0.9c0,0.2,0.1,0.3,0.3,0.3
				c0.6,0.1,1.2,0.2,1.8,0.4c0.8,0.3,1.5,0.7,2.2,1.2c0.1,0.1,0.2,0.1,0.3,0.2l0.1-0.1c0.9-0.8,1.7-1.7,2.6-2.5
				c0.9-0.9,1.8-1.7,2.6-2.6C31.5,12.2,31.6,12.1,31.7,12"/>
			<path fill="#FFFFFF" d="M9.6,35.8c0.2,0.3,0.5,0.5,0.8,0.8c1.6,1.3,3.3,2.2,5.2,2.8c0.8,0.3,1.6,0.5,2.4,0.6
				c0.5,0.1,1,0.1,1.5,0.2c0.1,0,0.1,0,0.2,0c0-0.1,0-0.1,0-0.2v-0.1c0-2.4,0.1-4.9,0.1-7.3c0-0.4,0-0.4-0.4-0.4
				c-0.6-0.1-1.2-0.2-1.8-0.5c-0.9-0.3-1.7-0.8-2.4-1.4c-0.2,0-0.3,0.2-0.4,0.3c-1.7,1.7-3.4,3.4-5.1,5.1
				C9.6,35.7,9.6,35.7,9.6,35.8"/>
			<path fill="#FFFFFF" d="M20.1,7.5c0.1,0.6,0.1,1.1,0,1.7c0,0.1,0,0.2,0,0.3c0,1.5,0,3.1,0,4.6c0,0.5-0.1,1,0,1.5
				c-1.8,0.1-3.3,0.8-4.7,1.9c-1.9-1.9-3.7-3.8-5.5-5.7c0.1-0.3,0.4-0.4,0.6-0.6c1.1-0.9,2.4-1.7,3.7-2.3c1.2-0.5,2.3-0.9,3.6-1.1
				c0.8-0.1,1.5-0.2,2.3-0.2"/>
			<path fill="#FFFFFF" d="M14.4,18.4c-0.3,0.2-0.5,0.6-0.7,0.9c-0.7,1-1.1,2.1-1.3,3.4c0,0.2-0.1,0.3-0.4,0.3c-1.6,0-3.2,0-4.8,0
				c-0.9,0-1.7,0-2.6,0c-0.2,0-0.3,0-0.3-0.3c0-0.7,0.2-1.4,0.3-2.1c0.2-1.1,0.5-2.2,1-3.2C6.2,16,7,14.6,8,13.4
				c0.2-0.2,0.4-0.5,0.7-0.7"/>
			<path fill="#FFFFFF" d="M8.7,12.6c0,0.1,0.1,0.2,0.1,0.2c1.8,1.8,3.6,3.7,5.4,5.5c0,0,0,0,0,0.1"/>
		</g>
	</g>
</g>
</svg>
