<?xml version="1.0" encoding="utf-8"?>
<!-- Generator: Adobe Illustrator 18.0.0, SVG Export Plug-In . SVG Version: 6.00 Build 0)  -->
<!DOCTYPE svg PUBLIC "-//W3C//DTD SVG 1.1//EN" "http://www.w3.org/Graphics/SVG/1.1/DTD/svg11.dtd" [
	<!ENTITY ns_extend "http://ns.adobe.com/Extensibility/1.0/">
	<!ENTITY ns_ai "http://ns.adobe.com/AdobeIllustrator/10.0/">
	<!ENTITY ns_graphs "http://ns.adobe.com/Graphs/1.0/">
	<!ENTITY ns_vars "http://ns.adobe.com/Variables/1.0/">
	<!ENTITY ns_imrep "http://ns.adobe.com/ImageReplacement/1.0/">
	<!ENTITY ns_sfw "http://ns.adobe.com/SaveForWeb/1.0/">
	<!ENTITY ns_custom "http://ns.adobe.com/GenericCustomNamespace/1.0/">
	<!ENTITY ns_adobe_xpath "http://ns.adobe.com/XPath/1.0/">
]>
<svg version="1.1" id="Layer_1" xmlns:x="&ns_extend;" xmlns:i="&ns_ai;" xmlns:graph="&ns_graphs;"
	 xmlns="http://www.w3.org/2000/svg" xmlns:xlink="http://www.w3.org/1999/xlink" x="0px" y="0px" viewBox="0 0 41.4 48.8"
	 enable-background="new 0 0 41.4 48.8" xml:space="preserve">
<metadata>
	<sfw  xmlns="&ns_sfw;">
		<slices></slices>
		<sliceSourceBounds  height="33" width="33" bottomLeftOrigin="true" x="176.5" y="-216.4"></sliceSourceBounds>
	</sfw>
</metadata>
<g id="small_ambient__effect_icon">
	<g>
		<path fill="#FFFFFF" d="M20.7,40.9c-9.1,0-16.5-7.4-16.5-16.5S11.6,7.9,20.7,7.9s16.5,7.4,16.5,16.5S29.8,40.9,20.7,40.9z
			 M20.7,8.7C12.1,8.7,5,15.7,5,24.4c0,8.6,7,15.7,15.7,15.7c8.6,0,15.7-7,15.7-15.7C36.4,15.7,29.3,8.7,20.7,8.7z"/>
	</g>
	<g>
		<g>
			<path fill="#FFFFFF" d="M14,32.7c0.7-2.5,1.5-5,2.2-7.5c0-0.1,0.1-0.3,0-0.4c-0.3-0.9-0.5-1.9-0.8-2.8c-0.5-1.6-0.9-3.2-1.4-4.8
				c0-0.1,0-0.1,0-0.2c5.7,2.7,11.4,5.3,17.1,8c-5.7,2.7-11.4,5.3-17.1,8C14,32.8,14,32.8,14,32.7z M29.2,25c-0.1,0-0.2,0-0.2,0
				c-3.9,0-7.7,0-11.6,0c-0.2,0-0.2,0-0.3,0.2c-0.6,2-1.2,4.1-1.8,6.1c0,0.1,0,0.1-0.1,0.2C19.9,29.3,24.5,27.2,29.2,25z"/>
		</g>
	</g>
</g>
</svg>
