<?xml version="1.0" encoding="utf-8"?>
<!-- Generator: Adobe Illustrator 18.0.0, SVG Export Plug-In . SVG Version: 6.00 Build 0)  -->
<!DOCTYPE svg PUBLIC "-//W3C//DTD SVG 1.1//EN" "http://www.w3.org/Graphics/SVG/1.1/DTD/svg11.dtd" [
	<!ENTITY ns_extend "http://ns.adobe.com/Extensibility/1.0/">
	<!ENTITY ns_ai "http://ns.adobe.com/AdobeIllustrator/10.0/">
	<!ENTITY ns_graphs "http://ns.adobe.com/Graphs/1.0/">
	<!ENTITY ns_vars "http://ns.adobe.com/Variables/1.0/">
	<!ENTITY ns_imrep "http://ns.adobe.com/ImageReplacement/1.0/">
	<!ENTITY ns_sfw "http://ns.adobe.com/SaveForWeb/1.0/">
	<!ENTITY ns_custom "http://ns.adobe.com/GenericCustomNamespace/1.0/">
	<!ENTITY ns_adobe_xpath "http://ns.adobe.com/XPath/1.0/">
]>
<svg version="1.1" id="Layer_1" xmlns:x="&ns_extend;" xmlns:i="&ns_ai;" xmlns:graph="&ns_graphs;"
	 xmlns="http://www.w3.org/2000/svg" xmlns:xlink="http://www.w3.org/1999/xlink" x="0px" y="0px" viewBox="0 0 109.8 118.1"
	 enable-background="new 0 0 109.8 118.1" xml:space="preserve">
<metadata>
	<sfw  xmlns="&ns_sfw;">
		<slices></slices>
		<sliceSourceBounds  height="101.3" width="68.8" bottomLeftOrigin="true" x="162.5" y="-256.1"></sliceSourceBounds>
	</sfw>
</metadata>
<g id="fade_large_icons">
	<g>
		<path fill="#FFFFFF" d="M54.2,81.1c-19,0-34.4-15.4-34.4-34.4s15.4-34.4,34.4-34.4s34.4,15.4,34.4,34.4
			C88.6,65.7,73.1,81.1,54.2,81.1z M54.2,14.1c-18,0-32.6,14.6-32.6,32.6s14.6,32.6,32.6,32.6s32.6-14.6,32.6-32.6
			C86.8,28.7,72.1,14.1,54.2,14.1z"/>
	</g>
	<text transform="matrix(1 0 0 1 25.364 108.1851)" fill="#FFFFFF" font-family="'PublicaPlay-Regular'" font-size="23.9724">Fade</text>
	<g>
		<g>
			<g>
				<path fill="#FFFFFF" d="M40.3,64c1.5-5.2,3-10.4,4.5-15.6c0.1-0.3,0.1-0.6,0-0.8c-0.5-1.9-1.1-3.9-1.7-5.8
					c-1-3.3-1.9-6.7-2.9-10c0-0.1-0.1-0.3-0.1-0.5C52,36.9,63.8,42.4,75.6,48C63.7,53.6,51.9,59.1,40,64.7
					C40.2,64.4,40.3,64.2,40.3,64z M71.8,48c-0.3,0-0.4-0.1-0.5-0.1c-8,0-16.1,0-24.1,0c-0.4,0-0.5,0.1-0.6,0.5
					c-1.2,4.3-2.5,8.5-3.7,12.7c0,0.1-0.1,0.3-0.1,0.5C52.4,57.1,62.1,52.6,71.8,48z"/>
			</g>
		</g>
	</g>
</g>
</svg>
