<?xml version="1.0" encoding="utf-8"?>
<!-- Generator: Adobe Illustrator 18.0.0, SVG Export Plug-In . SVG Version: 6.00 Build 0)  -->
<!DOCTYPE svg PUBLIC "-//W3C//DTD SVG 1.1//EN" "http://www.w3.org/Graphics/SVG/1.1/DTD/svg11.dtd" [
	<!ENTITY ns_extend "http://ns.adobe.com/Extensibility/1.0/">
	<!ENTITY ns_ai "http://ns.adobe.com/AdobeIllustrator/10.0/">
	<!ENTITY ns_graphs "http://ns.adobe.com/Graphs/1.0/">
	<!ENTITY ns_vars "http://ns.adobe.com/Variables/1.0/">
	<!ENTITY ns_imrep "http://ns.adobe.com/ImageReplacement/1.0/">
	<!ENTITY ns_sfw "http://ns.adobe.com/SaveForWeb/1.0/">
	<!ENTITY ns_custom "http://ns.adobe.com/GenericCustomNamespace/1.0/">
	<!ENTITY ns_adobe_xpath "http://ns.adobe.com/XPath/1.0/">
]>
<svg version="1.1" id="Layer_1" xmlns:x="&ns_extend;" xmlns:i="&ns_ai;" xmlns:graph="&ns_graphs;"
	 xmlns="http://www.w3.org/2000/svg" xmlns:xlink="http://www.w3.org/1999/xlink" x="0px" y="0px" viewBox="0 0 109.8 118.1"
	 enable-background="new 0 0 109.8 118.1" xml:space="preserve">
<metadata>
	<sfw  xmlns="&ns_sfw;">
		<slices></slices>
		<sliceSourceBounds  height="104.8" width="68.8" bottomLeftOrigin="true" x="161.4" y="-255.6"></sliceSourceBounds>
	</sfw>
</metadata>
<g id="firefly_large_icons">
	<g>
		<path fill="#FFFFFF" d="M53.1,77.2c-19,0-34.4-15.4-34.4-34.4S34.1,8.4,53.1,8.4s34.4,15.4,34.4,34.4
			C87.5,61.7,72.1,77.2,53.1,77.2z M53.1,10.1c-18,0-32.6,14.6-32.6,32.6s14.6,32.6,32.6,32.6s32.6-14.6,32.6-32.6
			C85.7,24.8,71.1,10.1,53.1,10.1z"/>
	</g>
	<text transform="matrix(1 0 0 1 21.6157 107.7407)" fill="#FFFFFF" font-family="'PublicaPlay-Regular'" font-size="23.9724">Firefy</text>
	<g>
		<g>
			<path fill="#FFFFFF" d="M48.4,35.1c-0.1-2,0.7-3.6,2.4-4.8c-0.7-1-1.5-1.9-2.4-2.7c-1-0.9-2.2-1.6-3.4-2.2
				c-0.3-0.2-0.5-0.5-0.4-0.8c0.1-0.5,0.6-0.7,1-0.5c1.2,0.6,2.3,1.3,3.4,2.1c1.2,1,2.2,2,3,3.3c0.1,0.1,0.1,0.1,0.3,0.1
				c1.1-0.2,2.2-0.2,3.2,0.1c0.1,0,0.2,0,0.3-0.1c1.6-2.4,3.8-4.2,6.4-5.4c0.3-0.2,0.7-0.1,0.9,0.3c0.2,0.4,0.1,0.7-0.3,0.9
				c-0.8,0.5-1.6,0.9-2.3,1.4c-1.4,1-2.6,2.2-3.6,3.7c1.6,1.3,2.3,2.9,2.2,5c0.2,0,0.4,0,0.6-0.1c1.2-0.2,2.4-0.2,3.6-0.1
				c1.8,0.2,3.6,0.7,5.1,1.8c1.3,0.9,2.3,2.2,3,3.6c0.7,1.3,1.1,2.7,1.4,4.1c0.1,0.4-0.2,0.7-0.5,0.8c-0.4,0.1-0.7-0.1-0.8-0.5
				c-0.2-1-0.5-2.1-1-3c-0.7-1.5-1.5-2.9-2.9-3.8c-1.1-0.8-2.4-1.3-3.8-1.5c-1.1-0.2-2.1-0.2-3.2-0.1c-1.7,0.1-3.3,0.5-4.9,1
				c-0.3,0.1-0.7,0.2-1,0.3c0.4,1.4,0.9,2.8,1.5,4.1c1.3,2.9,3.1,5.5,5.3,7.7c1.7,1.7,3.6,3.1,5.6,4.4c1.5,1,3.1,1.8,4.7,2.5
				c0,0,0.1,0,0.2,0.1c0-0.4,0.1-0.9,0.1-1.3c0-1.4,0.1-2.8,0.1-4.3c0-0.6,0-1.1-0.1-1.7c0-0.4,0.2-0.8,0.6-0.8s0.7,0.2,0.7,0.7
				c0,1.1,0.1,2.2,0.1,3.3c0,1.4-0.1,2.8-0.2,4.2c-0.1,1-1,1.5-1.9,1.1c-2.9-1.3-5.7-2.9-8.2-4.9c-0.9-0.7-1.7-1.4-2.5-2.2l-0.1-0.1
				c-0.1,0.4-0.1,0.7-0.2,1.1c-0.2,0.8-0.3,1.7-0.5,2.5c-0.3,0.8-0.7,1.6-1,2.4c-0.6,1.1-1.2,2.2-2.1,3.1c-0.5,0.6-1.2,1-1.9,1.3
				c-1.3,0.4-2.4,0.1-3.4-0.6c-1-0.8-1.8-1.8-2.4-2.9c-0.5-0.9-0.8-1.8-1.3-2.7c-0.6-1.1-0.6-2.3-0.9-3.4c-0.1-0.4-0.2-0.9-0.2-1.3
				c-0.1,0.1-0.2,0.2-0.3,0.3c-2.2,1.9-4.6,3.5-7.2,4.7c-1.3,0.6-2.6,1.2-3.9,1.7c-0.9,0.4-1.8-0.2-1.8-1.2c0-1.6,0-3.3,0.1-4.9
				c0.2-3,0.6-6,1.7-8.8c0.6-1.6,1.4-3.1,2.6-4.4c1.3-1.4,2.8-2.2,4.6-2.6c1.5-0.4,3-0.4,4.5-0.2C47.3,34.9,47.8,35,48.4,35.1z
				 M34.6,55.7c0,0,0.1,0,0.1,0.1c1.3-0.6,2.6-1.1,3.8-1.8c3.2-1.6,6.1-3.6,8.6-6.2c2.6-2.8,4.5-6,5.8-9.6c0.1-0.2,0-0.3-0.2-0.4
				c-2.2-0.9-4.4-1.5-6.8-1.7c-1.2-0.1-2.4,0-3.5,0.3c-2.3,0.6-3.9,1.9-5,3.9c-1.4,2.5-2,5.3-2.4,8.1c-0.1,1-0.2,2.1-0.3,3.2
				C34.6,53,34.6,54.4,34.6,55.7z M48.6,53.9c3.4-0.7,6.7-0.7,10,0.1c0-0.1,0-0.1,0-0.1c0.2-1.3,0.5-2.5,0.7-3.8
				c0-0.2-0.1-0.3-0.3-0.4c-1.4-0.4-2.9-0.7-4.4-0.8c-1,0-2.1,0-3.1,0.1c-0.7,0-1.3,0.1-2,0.3c-0.6,0.1-1.1,0.3-1.7,0.4
				C48,51.1,48.3,52.5,48.6,53.9z M57.5,35.6c0.3-1.3,0-2.6-1-3.6c-0.3-0.3-0.7-0.7-1.2-0.9c-0.8-0.3-1.7-0.4-2.6-0.2
				c-0.3,0-0.6,0.1-0.8,0.2c-0.5,0.3-0.9,0.6-1.3,1c-0.7,0.9-1,1.9-0.9,3c0,0.2,0.1,0.3,0.3,0.3c1,0.3,2,0.6,3,1
				c0.5,0.2,1,0.2,1.5,0C55.5,36.2,56.5,35.9,57.5,35.6z M58,55.3c-3-0.6-5.9-0.7-8.9-0.1c0.3,0.7,0.6,1.3,1,1.9
				c0.5,0.8,1,1.6,1.8,2.3c1.1,1,2.3,1,3.4,0c0.6-0.5,1-1,1.4-1.6C57.2,57,57.6,56.1,58,55.3z M58,48c-0.9-1.3-1.7-2.5-2.4-3.9
				c-0.7-1.3-1.3-2.7-1.8-4.2c-0.6,1.5-1.3,2.9-2.1,4.2c-0.8,1.3-1.7,2.6-2.8,3.8c1.6-0.3,3.1-0.5,4.6-0.5
				C54.9,47.5,56.4,47.7,58,48z"/>
			<path fill="#FFFFFF" d="M61.8,38.6c1,0,2,0.1,3,0.4c1.6,0.5,2.7,1.5,3.4,3c0.7,1.3,1.1,2.7,1.4,4.1c0.3,1.7,0.5,3.4,0.5,5.1
				c0,0.5-0.2,1-0.7,1.3s-1,0.2-1.5-0.1c-2-1.3-3.9-2.8-5.6-4.5c-1.9-2.1-3.4-4.4-4.6-7c-0.4-0.8-0.1-1.9,1.2-2
				C59.9,38.7,60.8,38.6,61.8,38.6C61.8,38.5,61.8,38.6,61.8,38.6z M68.6,51.2c0-0.2,0-0.4,0-0.5c-0.1-1.3-0.2-2.6-0.4-3.9
				c-0.2-1.4-0.6-2.7-1.2-4c-0.7-1.4-1.8-2.4-3.4-2.7c-1.3-0.3-2.7-0.2-4,0c-0.2,0-0.4,0.1-0.7,0.1C61,45,64.3,48.5,68.6,51.2z"/>
			<path fill="#FFFFFF" d="M45.1,38.1c1.3,0,2.5,0.3,3.8,0.6c0.8,0.2,1.2,1.1,0.8,1.8c-1.6,3.1-3.7,5.9-6.4,8.1
				c-1.4,1.2-3,2.2-4.6,3.1c-0.8,0.4-1.6,0.1-1.9-0.8c-0.1-0.2-0.1-0.5,0-0.7c0.2-2.2,0.5-4.4,1.3-6.4c0.4-1.2,1-2.4,1.8-3.4
				c0.9-1.1,2.1-1.7,3.4-2C43.9,38.2,44.5,38.2,45.1,38.1z M38.2,50.4c4.5-2.4,8-5.8,10.3-10.4h-0.1c-1.5-0.4-3.1-0.6-4.7-0.3
				c-1.2,0.2-2.2,0.7-2.9,1.7c-0.8,1.1-1.3,2.3-1.7,3.6C38.6,46.7,38.3,48.5,38.2,50.4z"/>
		</g>
	</g>
</g>
</svg>
