<?xml version="1.0" encoding="utf-8"?>
<!-- Generator: Adobe Illustrator 18.0.0, SVG Export Plug-In . SVG Version: 6.00 Build 0)  -->
<!DOCTYPE svg PUBLIC "-//W3C//DTD SVG 1.1//EN" "http://www.w3.org/Graphics/SVG/1.1/DTD/svg11.dtd" [
	<!ENTITY ns_extend "http://ns.adobe.com/Extensibility/1.0/">
	<!ENTITY ns_ai "http://ns.adobe.com/AdobeIllustrator/10.0/">
	<!ENTITY ns_graphs "http://ns.adobe.com/Graphs/1.0/">
	<!ENTITY ns_vars "http://ns.adobe.com/Variables/1.0/">
	<!ENTITY ns_imrep "http://ns.adobe.com/ImageReplacement/1.0/">
	<!ENTITY ns_sfw "http://ns.adobe.com/SaveForWeb/1.0/">
	<!ENTITY ns_custom "http://ns.adobe.com/GenericCustomNamespace/1.0/">
	<!ENTITY ns_adobe_xpath "http://ns.adobe.com/XPath/1.0/">
]>
<svg version="1.1" id="Layer_1" xmlns:x="&ns_extend;" xmlns:i="&ns_ai;" xmlns:graph="&ns_graphs;"
	 xmlns="http://www.w3.org/2000/svg" xmlns:xlink="http://www.w3.org/1999/xlink" x="0px" y="0px" viewBox="0 0 109.8 118.1"
	 enable-background="new 0 0 109.8 118.1" xml:space="preserve">
<metadata>
	<sfw  xmlns="&ns_sfw;">
		<slices></slices>
		<sliceSourceBounds  height="104.7" width="102.1" bottomLeftOrigin="true" x="145.7" y="-256.6"></sliceSourceBounds>
	</sfw>
</metadata>
<g id="lightning_large_icons">
	<g>
		<g>
			<path fill="#FFFFFF" d="M56.3,78.2c-19,0-34.4-15.4-34.4-34.4S37.3,9.4,56.3,9.4s34.4,15.4,34.4,34.4
				C90.8,62.7,75.3,78.2,56.3,78.2z M56.3,11.1c-18,0-32.6,14.6-32.6,32.6s14.6,32.6,32.6,32.6s32.6-14.6,32.6-32.6
				C89,25.8,74.3,11.1,56.3,11.1z"/>
		</g>
		<text transform="matrix(1 0 0 1 3.0396 108.729)" fill="#FFFFFF" font-family="'PublicaPlay-Regular'" font-size="23.9724">Lightning</text>
		<g>
			<g>
				<path fill="#FFFFFF" d="M63.7,42.3c-5.7,8-11.4,15.9-17.2,23.8l0,0c2.6-6.2,5.3-12.4,8-18.7c-2.7,0-5.3,0-8,0
					c0.2-0.6,0.4-1.1,0.6-1.7c0.6-1.6,1.1-3.2,1.7-4.8c0.9-2.5,1.7-5,2.6-7.4c0.6-1.8,1.3-3.6,1.9-5.4c0.4-1.1,0.8-2.3,1.2-3.4
					c0-0.1,0.1-0.2,0.2-0.2c3.8,0,7.7,0,11.5,0c0,0,0,0,0.1,0c-3.9,5.9-7.8,11.8-11.6,17.7C57.7,42.3,60.6,42.3,63.7,42.3z"/>
			</g>
		</g>
	</g>
</g>
</svg>
