<?xml version="1.0" encoding="utf-8"?>
<!-- Generator: Adobe Illustrator 18.0.0, SVG Export Plug-In . SVG Version: 6.00 Build 0)  -->
<!DOCTYPE svg PUBLIC "-//W3C//DTD SVG 1.1//EN" "http://www.w3.org/Graphics/SVG/1.1/DTD/svg11.dtd" [
	<!ENTITY ns_extend "http://ns.adobe.com/Extensibility/1.0/">
	<!ENTITY ns_ai "http://ns.adobe.com/AdobeIllustrator/10.0/">
	<!ENTITY ns_graphs "http://ns.adobe.com/Graphs/1.0/">
	<!ENTITY ns_vars "http://ns.adobe.com/Variables/1.0/">
	<!ENTITY ns_imrep "http://ns.adobe.com/ImageReplacement/1.0/">
	<!ENTITY ns_sfw "http://ns.adobe.com/SaveForWeb/1.0/">
	<!ENTITY ns_custom "http://ns.adobe.com/GenericCustomNamespace/1.0/">
	<!ENTITY ns_adobe_xpath "http://ns.adobe.com/XPath/1.0/">
]>
<svg version="1.1" id="Layer_1" xmlns:x="&ns_extend;" xmlns:i="&ns_ai;" xmlns:graph="&ns_graphs;"
	 xmlns="http://www.w3.org/2000/svg" xmlns:xlink="http://www.w3.org/1999/xlink" x="0px" y="0px" viewBox="0 0 109.8 118.1"
	 enable-background="new 0 0 109.8 118.1" xml:space="preserve">
<metadata>
	<sfw  xmlns="&ns_sfw;">
		<slices></slices>
		<sliceSourceBounds  height="110.3" width="68.8" bottomLeftOrigin="true" x="159.9" y="-256.1"></sliceSourceBounds>
	</sfw>
</metadata>
<text transform="matrix(1 0 0 1 41.7306 90.4452)" fill="#FFFFFF" font-family="'PublicaPlay-Regular'" font-size="16.1978">NO</text>
<text transform="matrix(1 0 0 1 31.9338 109.9052)" fill="#FFFFFF" font-family="'PublicaPlay-Regular'" font-size="16.1978">Efect</text>
<g>
	<path fill="#FFFFFF" d="M51.6,72.1c-19,0-34.4-15.4-34.4-34.4S32.6,3.3,51.6,3.3S86,18.7,86,37.7C86,56.7,70.6,72.1,51.6,72.1z
		 M51.6,5.1C33.6,5.1,19,19.7,19,37.7s14.6,32.6,32.6,32.6s32.6-14.6,32.6-32.6C84.2,19.7,69.6,5.1,51.6,5.1z"/>
</g>
<g>
	<path fill="#FFFFFF" d="M51.6,40.9c1.1,0,2-1.2,2-2.7V22.1c0-1.5-0.9-2.7-2-2.7s-2,1.2-2,2.7v16.1C49.6,39.7,50.5,40.9,51.6,40.9z"
		/>
	<path fill="#FFFFFF" d="M56.5,20.2v4.3c5,2,8.5,6.8,8.5,12.5c0,7.4-6,13.4-13.4,13.4s-13.4-6-13.4-13.4c0-5.7,3.5-10.5,8.5-12.5
		v-4.3c-7.2,2.1-12.5,8.8-12.5,16.7c0,9.6,7.8,17.4,17.4,17.4S69,46.5,69,36.9C69,29,63.7,22.3,56.5,20.2z"/>
</g>
</svg>
