<?xml version="1.0" encoding="utf-8"?>
<!-- Generator: Adobe Illustrator 18.0.0, SVG Export Plug-In . SVG Version: 6.00 Build 0)  -->
<!DOCTYPE svg PUBLIC "-//W3C//DTD SVG 1.1//EN" "http://www.w3.org/Graphics/SVG/1.1/DTD/svg11.dtd" [
	<!ENTITY ns_extend "http://ns.adobe.com/Extensibility/1.0/">
	<!ENTITY ns_ai "http://ns.adobe.com/AdobeIllustrator/10.0/">
	<!ENTITY ns_graphs "http://ns.adobe.com/Graphs/1.0/">
	<!ENTITY ns_vars "http://ns.adobe.com/Variables/1.0/">
	<!ENTITY ns_imrep "http://ns.adobe.com/ImageReplacement/1.0/">
	<!ENTITY ns_sfw "http://ns.adobe.com/SaveForWeb/1.0/">
	<!ENTITY ns_custom "http://ns.adobe.com/GenericCustomNamespace/1.0/">
	<!ENTITY ns_adobe_xpath "http://ns.adobe.com/XPath/1.0/">
]>
<svg version="1.1" id="Layer_1" xmlns:x="&ns_extend;" xmlns:i="&ns_ai;" xmlns:graph="&ns_graphs;"
	 xmlns="http://www.w3.org/2000/svg" xmlns:xlink="http://www.w3.org/1999/xlink" x="0px" y="0px" viewBox="0 0 109.8 118.1"
	 enable-background="new 0 0 109.8 118.1" xml:space="preserve">
<metadata>
	<sfw  xmlns="&ns_sfw;">
		<slices></slices>
		<sliceSourceBounds  height="104.8" width="92.2" bottomLeftOrigin="true" x="152.2" y="-257.1"></sliceSourceBounds>
	</sfw>
</metadata>
<g id="random_large_icons">
	<g>
		<g>
			<path fill="#FFFFFF" d="M54,78.6c-19,0-34.4-15.4-34.4-34.4S35,9.8,54,9.8s34.4,15.4,34.4,34.4S72.9,78.6,54,78.6z M54,11.6
				c-18,0-32.6,14.6-32.6,32.6S36,76.8,54,76.8s32.6-14.6,32.6-32.6C86.6,26.2,71.9,11.6,54,11.6z"/>
		</g>
		<text transform="matrix(1 0 0 1 9.5571 109.1656)" fill="#FFFFFF" font-family="'PublicaPlay-Regular'" font-size="23.9724">Random</text>
		<circle fill="#FFFFFF" stroke="#FFFFFF" stroke-width="1.4983" stroke-miterlimit="10" cx="37.3" cy="29.7" r="5.1"/>
		<circle fill="none" stroke="#FFFFFF" stroke-width="1.4983" stroke-miterlimit="10" cx="54.4" cy="29.7" r="5.1"/>
		<circle fill="#FFFFFF" stroke="#FFFFFF" stroke-width="1.4983" stroke-miterlimit="10" cx="70.6" cy="29.7" r="5.1"/>
		<circle fill="#FFFFFF" stroke="#FFFFFF" stroke-width="1.4983" stroke-miterlimit="10" cx="37.3" cy="44.1" r="5.1"/>
		<circle fill="#FFFFFF" stroke="#FFFFFF" stroke-width="1.4983" stroke-miterlimit="10" cx="54.4" cy="44.1" r="5.1"/>
		<circle fill="none" stroke="#FFFFFF" stroke-width="1.4983" stroke-miterlimit="10" cx="70.6" cy="44.1" r="5.1"/>
		<circle fill="none" stroke="#FFFFFF" stroke-width="1.4983" stroke-miterlimit="10" cx="37.3" cy="57.7" r="5.1"/>
		<circle fill="#FFFFFF" stroke="#FFFFFF" stroke-width="1.4983" stroke-miterlimit="10" cx="54.4" cy="57.7" r="5.1"/>
		<circle fill="none" stroke="#FFFFFF" stroke-width="1.4983" stroke-miterlimit="10" cx="70.6" cy="57.7" r="5.1"/>
	</g>
</g>
</svg>
