<?xml version="1.0" encoding="utf-8"?>
<!-- Generator: Adobe Illustrator 18.0.0, SVG Export Plug-In . SVG Version: 6.00 Build 0)  -->
<!DOCTYPE svg PUBLIC "-//W3C//DTD SVG 1.1//EN" "http://www.w3.org/Graphics/SVG/1.1/DTD/svg11.dtd" [
	<!ENTITY ns_extend "http://ns.adobe.com/Extensibility/1.0/">
	<!ENTITY ns_ai "http://ns.adobe.com/AdobeIllustrator/10.0/">
	<!ENTITY ns_graphs "http://ns.adobe.com/Graphs/1.0/">
	<!ENTITY ns_vars "http://ns.adobe.com/Variables/1.0/">
	<!ENTITY ns_imrep "http://ns.adobe.com/ImageReplacement/1.0/">
	<!ENTITY ns_sfw "http://ns.adobe.com/SaveForWeb/1.0/">
	<!ENTITY ns_custom "http://ns.adobe.com/GenericCustomNamespace/1.0/">
	<!ENTITY ns_adobe_xpath "http://ns.adobe.com/XPath/1.0/">
]>
<svg version="1.1" id="Layer_1" xmlns:x="&ns_extend;" xmlns:i="&ns_ai;" xmlns:graph="&ns_graphs;"
	 xmlns="http://www.w3.org/2000/svg" xmlns:xlink="http://www.w3.org/1999/xlink" x="0px" y="0px" viewBox="0 0 41.4 48.8"
	 enable-background="new 0 0 41.4 48.8" xml:space="preserve">
<metadata>
	<sfw  xmlns="&ns_sfw;">
		<slices></slices>
		<sliceSourceBounds  height="28.5" width="28.6" bottomLeftOrigin="true" x="179.7" y="-214.2"></sliceSourceBounds>
	</sfw>
</metadata>
<g id="ss_small_icon">
	<path fill="#FFFFFF" d="M35.5,20.4c-0.6-0.6-1.7-0.6-2.3,0l-4.1,4.1c-0.8,0.8-2,0.8-2.8,0s-0.8-2,0-2.8l6.4-6.4l0,0
		c0.6-0.6,0.6-1.5,0-2.1s-1.5-0.6-2.1,0l0,0l-5.3,5.3c-0.8,0.8-2,0.8-2.8,0s-0.8-2,0-2.8l3-3c0.6-0.6,0.6-1.5,0-2.1s-1.5-0.6-2.1,0
		L11.5,22.5c-0.6,0.3-1.1,0.8-1.6,1.3c-3.4,3.4-3.4,8.9,0,12.3s8.9,3.4,12.3,0l13.4-13.4C36.1,22.1,36.1,21,35.5,20.4z M16,34.8
		c-3,0-5.4-2.4-5.4-5.4S13,24,16,24s5.4,2.4,5.4,5.4S18.9,34.8,16,34.8z"/>
</g>
</svg>
