<?xml version="1.0" encoding="utf-8"?>
<!-- Generator: Adobe Illustrator 18.0.0, SVG Export Plug-In . SVG Version: 6.00 Build 0)  -->
<!DOCTYPE svg PUBLIC "-//W3C//DTD SVG 1.1//EN" "http://www.w3.org/Graphics/SVG/1.1/DTD/svg11.dtd" [
	<!ENTITY ns_extend "http://ns.adobe.com/Extensibility/1.0/">
	<!ENTITY ns_ai "http://ns.adobe.com/AdobeIllustrator/10.0/">
	<!ENTITY ns_graphs "http://ns.adobe.com/Graphs/1.0/">
	<!ENTITY ns_vars "http://ns.adobe.com/Variables/1.0/">
	<!ENTITY ns_imrep "http://ns.adobe.com/ImageReplacement/1.0/">
	<!ENTITY ns_sfw "http://ns.adobe.com/SaveForWeb/1.0/">
	<!ENTITY ns_custom "http://ns.adobe.com/GenericCustomNamespace/1.0/">
	<!ENTITY ns_adobe_xpath "http://ns.adobe.com/XPath/1.0/">
]>
<svg version="1.1" id="Layer_1" xmlns:x="&ns_extend;" xmlns:i="&ns_ai;" xmlns:graph="&ns_graphs;"
	 xmlns="http://www.w3.org/2000/svg" xmlns:xlink="http://www.w3.org/1999/xlink" x="0px" y="0px" viewBox="0 0 109.8 118.1"
	 enable-background="new 0 0 109.8 118.1" xml:space="preserve">
<metadata>
	<sfw  xmlns="&ns_sfw;">
		<slices></slices>
		<sliceSourceBounds  height="104.8" width="82.7" bottomLeftOrigin="true" x="154.5" y="-257.6"></sliceSourceBounds>
	</sfw>
</metadata>
<g id="twinkle_large_icons">
	<g>
		<path fill="#FFFFFF" d="M54.2,79.2c-19,0-34.4-15.4-34.4-34.4s15.4-34.4,34.4-34.4s34.4,15.4,34.4,34.4
			C88.6,63.7,73.2,79.2,54.2,79.2z M54.2,12.1c-18,0-32.6,14.6-32.6,32.6s14.6,32.6,32.6,32.6s32.6-14.6,32.6-32.6
			C86.8,26.8,72.1,12.1,54.2,12.1z"/>
	</g>
	<text transform="matrix(1 0 0 1 11.8716 109.7407)" fill="#FFFFFF" font-family="'PublicaPlay-Regular'" font-size="23.9724">Twinkle</text>
	<path fill="#FFFFFF" stroke="#FFFFFF" stroke-miterlimit="10" d="M71.3,46.3c-2.4-0.5-4.8-1.1-7.1-2c-3.4-1.3-5.8-3.6-7.2-6.9
		c-1.1-2.5-1.7-5.1-2.2-7.8c-0.2-0.9-0.3-1.8-0.5-2.7c-0.2,1-0.4,1.9-0.6,2.9c-0.5,2.4-1.1,4.8-2,7.1c-1.3,3.3-3.5,5.8-6.9,7.2
		c-2.7,1.1-5.5,1.8-8.3,2.4c-0.7,0.2-1.5,0.3-2.3,0.5c1.2,0.2,2.3,0.5,3.4,0.7c2.3,0.5,4.7,1.1,6.9,2c3.1,1.3,5.4,3.4,6.8,6.5
		c1.1,2.3,1.7,4.8,2.2,7.3c0.3,1.2,0.5,2.4,0.7,3.7c0.2-1,0.4-1.9,0.5-2.8c0.5-2.4,1.1-4.8,2-7.1c1.3-3.4,3.6-5.9,7-7.4
		c2.2-0.9,4.5-1.5,6.8-2c1.2-0.3,2.4-0.5,3.7-0.7C73.2,46.7,72.3,46.5,71.3,46.3z M63.3,48.8c-3.6,1.5-6.1,4.2-7.6,7.9
		c-0.7,1.8-1.2,3.5-1.6,5.3c-0.5-2.1-1.1-4.3-2-6.4c-1.5-3.2-3.9-5.6-7.4-7c-1.9-0.8-3.9-1.3-5.7-1.7c2-0.5,4.1-1,6-1.9
		c3.5-1.5,6-4.1,7.4-7.7c0.7-1.8,1.2-3.7,1.6-5.4c0.4,1.9,1,4,1.8,5.9c1.5,3.5,4.1,6.1,7.8,7.5c1.8,0.7,3.7,1.2,5.4,1.6
		C67.5,47.3,65.4,47.9,63.3,48.8z"/>
</g>
</svg>
